<svg width="233" height="56" viewBox="0 0 233 56" fill="none" xmlns="http://www.w3.org/2000/svg">
<path d="M7.76475 31V12.824H0.59675V8.6H20.1168V12.824H12.9488V31H7.76475ZM29.348 31.256C27.3853 31.256 25.6573 30.872 24.164 30.104C22.692 29.336 21.5507 28.2907 20.74 26.968C19.9293 25.624 19.524 24.0987 19.524 22.392C19.524 20.664 19.9187 19.1387 20.708 17.816C21.5187 16.472 22.6173 15.4267 24.004 14.68C25.3907 13.912 26.9587 13.528 28.708 13.528C30.3933 13.528 31.908 13.8907 33.252 14.616C34.6173 15.32 35.6947 16.344 36.484 17.688C37.2733 19.0107 37.668 20.6 37.668 22.456C37.668 22.648 37.6573 22.872 37.636 23.128C37.6147 23.3627 37.5933 23.5867 37.572 23.8H23.588V20.888H34.948L33.028 21.752C33.028 20.856 32.8467 20.0773 32.484 19.416C32.1213 18.7547 31.62 18.2427 30.98 17.88C30.34 17.496 29.5933 17.304 28.74 17.304C27.8867 17.304 27.1293 17.496 26.468 17.88C25.828 18.2427 25.3267 18.7653 24.964 19.448C24.6013 20.1093 24.42 20.8987 24.42 21.816V22.584C24.42 23.5227 24.6227 24.3547 25.028 25.08C25.4547 25.784 26.0413 26.328 26.788 26.712C27.556 27.0747 28.452 27.256 29.476 27.256C30.3933 27.256 31.1933 27.1173 31.876 26.84C32.58 26.5627 33.22 26.1467 33.796 25.592L36.452 28.472C35.6627 29.368 34.6707 30.0613 33.476 30.552C32.2813 31.0213 30.9053 31.256 29.348 31.256ZM46.7835 31.256C45.3115 31.256 43.8928 31.0853 42.5275 30.744C41.1835 30.3813 40.1168 29.9333 39.3275 29.4L40.9915 25.816C41.7808 26.3067 42.7088 26.712 43.7755 27.032C44.8635 27.3307 45.9302 27.48 46.9755 27.48C48.1275 27.48 48.9382 27.3413 49.4075 27.064C49.8982 26.7867 50.1435 26.4027 50.1435 25.912C50.1435 25.5067 49.9515 25.208 49.5675 25.016C49.2048 24.8027 48.7142 24.6427 48.0955 24.536C47.4768 24.4293 46.7942 24.3227 46.0475 24.216C45.3222 24.1093 44.5862 23.9707 43.8395 23.8C43.0928 23.608 42.4102 23.3307 41.7915 22.968C41.1728 22.6053 40.6715 22.1147 40.2875 21.496C39.9248 20.8773 39.7435 20.0773 39.7435 19.096C39.7435 18.008 40.0528 17.048 40.6715 16.216C41.3115 15.384 42.2288 14.7333 43.4235 14.264C44.6182 13.7733 46.0475 13.528 47.7115 13.528C48.8848 13.528 50.0795 13.656 51.2955 13.912C52.5115 14.168 53.5248 14.5413 54.3355 15.032L52.6715 18.584C51.8395 18.0933 50.9968 17.7627 50.1435 17.592C49.3115 17.4 48.5008 17.304 47.7115 17.304C46.6022 17.304 45.7915 17.4533 45.2795 17.752C44.7675 18.0507 44.5115 18.4347 44.5115 18.904C44.5115 19.3307 44.6928 19.6507 45.0555 19.864C45.4395 20.0773 45.9408 20.248 46.5595 20.376C47.1782 20.504 47.8502 20.6213 48.5755 20.728C49.3222 20.8133 50.0688 20.952 50.8155 21.144C51.5622 21.336 52.2342 21.6133 52.8315 21.976C53.4502 22.3173 53.9515 22.7973 54.3355 23.416C54.7195 24.0133 54.9115 24.8027 54.9115 25.784C54.9115 26.8507 54.5915 27.8 53.9515 28.632C53.3115 29.4427 52.3835 30.0827 51.1675 30.552C49.9728 31.0213 48.5115 31.256 46.7835 31.256ZM65.0315 31.256C63.0048 31.256 61.4262 30.744 60.2955 29.72C59.1648 28.6747 58.5995 27.128 58.5995 25.08V9.976H63.5915V25.016C63.5915 25.7413 63.7835 26.3067 64.1675 26.712C64.5515 27.096 65.0742 27.288 65.7355 27.288C66.5248 27.288 67.1968 27.0747 67.7515 26.648L69.0955 30.168C68.5835 30.5307 67.9648 30.808 67.2395 31C66.5355 31.1707 65.7995 31.256 65.0315 31.256ZM55.9435 18.008V14.168H67.8795V18.008H55.9435ZM82.9698 31.384C81.2418 31.384 79.6311 31.1067 78.1378 30.552C76.6658 29.976 75.3858 29.1653 74.2977 28.12C73.2098 27.0747 72.3564 25.848 71.7378 24.44C71.1404 23.032 70.8418 21.4853 70.8418 19.8C70.8418 18.1147 71.1404 16.568 71.7378 15.16C72.3564 13.752 73.2098 12.5253 74.2977 11.48C75.4071 10.4347 76.6978 9.63467 78.1698 9.08C79.6418 8.504 81.2524 8.216 83.0018 8.216C84.9431 8.216 86.6924 8.55733 88.2498 9.24C89.8284 9.90133 91.1511 10.8827 92.2178 12.184L88.8898 15.256C88.1218 14.3813 87.2684 13.7307 86.3298 13.304C85.3911 12.856 84.3671 12.632 83.2578 12.632C82.2124 12.632 81.2524 12.8027 80.3778 13.144C79.5031 13.4853 78.7458 13.976 78.1058 14.616C77.4658 15.256 76.9644 16.0133 76.6018 16.888C76.2604 17.7627 76.0898 18.7333 76.0898 19.8C76.0898 20.8667 76.2604 21.8373 76.6018 22.712C76.9644 23.5867 77.4658 24.344 78.1058 24.984C78.7458 25.624 79.5031 26.1147 80.3778 26.456C81.2524 26.7973 82.2124 26.968 83.2578 26.968C84.3671 26.968 85.3911 26.7547 86.3298 26.328C87.2684 25.88 88.1218 25.208 88.8898 24.312L92.2178 27.384C91.1511 28.6853 89.8284 29.6773 88.2498 30.36C86.6924 31.0427 84.9324 31.384 82.9698 31.384ZM105.833 31V27.64L105.513 26.904V20.888C105.513 19.8213 105.182 18.9893 104.521 18.392C103.881 17.7947 102.889 17.496 101.545 17.496C100.627 17.496 99.7208 17.6453 98.8248 17.944C97.9501 18.2213 97.2034 18.6053 96.5848 19.096L94.7928 15.608C95.7314 14.9467 96.8621 14.4347 98.1848 14.072C99.5074 13.7093 100.851 13.528 102.217 13.528C104.841 13.528 106.878 14.1467 108.329 15.384C109.779 16.6213 110.505 18.552 110.505 21.176V31H105.833ZM100.585 31.256C99.2408 31.256 98.0888 31.032 97.1288 30.584C96.1688 30.1147 95.4328 29.4853 94.9208 28.696C94.4088 27.9067 94.1528 27.0213 94.1528 26.04C94.1528 25.016 94.3981 24.12 94.8888 23.352C95.4008 22.584 96.2008 21.9867 97.2888 21.56C98.3768 21.112 99.7954 20.888 101.545 20.888H106.121V23.8H102.089C100.915 23.8 100.105 23.992 99.6568 24.376C99.2301 24.76 99.0168 25.24 99.0168 25.816C99.0168 26.456 99.2621 26.968 99.7528 27.352C100.265 27.7147 100.958 27.896 101.833 27.896C102.665 27.896 103.411 27.704 104.073 27.32C104.734 26.9147 105.214 26.328 105.513 25.56L106.281 27.864C105.918 28.9733 105.257 29.816 104.297 30.392C103.337 30.968 102.099 31.256 100.585 31.256ZM120.815 31.256C119.343 31.256 117.924 31.0853 116.559 30.744C115.215 30.3813 114.148 29.9333 113.359 29.4L115.023 25.816C115.812 26.3067 116.74 26.712 117.807 27.032C118.895 27.3307 119.961 27.48 121.007 27.48C122.159 27.48 122.969 27.3413 123.439 27.064C123.929 26.7867 124.175 26.4027 124.175 25.912C124.175 25.5067 123.983 25.208 123.599 25.016C123.236 24.8027 122.745 24.6427 122.127 24.536C121.508 24.4293 120.825 24.3227 120.079 24.216C119.353 24.1093 118.617 23.9707 117.871 23.8C117.124 23.608 116.441 23.3307 115.823 22.968C115.204 22.6053 114.703 22.1147 114.319 21.496C113.956 20.8773 113.775 20.0773 113.775 19.096C113.775 18.008 114.084 17.048 114.703 16.216C115.343 15.384 116.26 14.7333 117.455 14.264C118.649 13.7733 120.079 13.528 121.743 13.528C122.916 13.528 124.111 13.656 125.327 13.912C126.543 14.168 127.556 14.5413 128.367 15.032L126.703 18.584C125.871 18.0933 125.028 17.7627 124.175 17.592C123.343 17.4 122.532 17.304 121.743 17.304C120.633 17.304 119.823 17.4533 119.311 17.752C118.799 18.0507 118.543 18.4347 118.543 18.904C118.543 19.3307 118.724 19.6507 119.087 19.864C119.471 20.0773 119.972 20.248 120.591 20.376C121.209 20.504 121.881 20.6213 122.607 20.728C123.353 20.8133 124.1 20.952 124.847 21.144C125.593 21.336 126.265 21.6133 126.863 21.976C127.481 22.3173 127.983 22.7973 128.367 23.416C128.751 24.0133 128.943 24.8027 128.943 25.784C128.943 26.8507 128.623 27.8 127.983 28.632C127.343 29.4427 126.415 30.0827 125.199 30.552C124.004 31.0213 122.543 31.256 120.815 31.256ZM140.567 31.256C138.604 31.256 136.876 30.872 135.383 30.104C133.911 29.336 132.769 28.2907 131.959 26.968C131.148 25.624 130.743 24.0987 130.743 22.392C130.743 20.664 131.137 19.1387 131.927 17.816C132.737 16.472 133.836 15.4267 135.223 14.68C136.609 13.912 138.177 13.528 139.927 13.528C141.612 13.528 143.127 13.8907 144.471 14.616C145.836 15.32 146.913 16.344 147.703 17.688C148.492 19.0107 148.887 20.6 148.887 22.456C148.887 22.648 148.876 22.872 148.855 23.128C148.833 23.3627 148.812 23.5867 148.791 23.8H134.807V20.888H146.167L144.247 21.752C144.247 20.856 144.065 20.0773 143.703 19.416C143.34 18.7547 142.839 18.2427 142.199 17.88C141.559 17.496 140.812 17.304 139.959 17.304C139.105 17.304 138.348 17.496 137.687 17.88C137.047 18.2427 136.545 18.7653 136.183 19.448C135.82 20.1093 135.639 20.8987 135.639 21.816V22.584C135.639 23.5227 135.841 24.3547 136.247 25.08C136.673 25.784 137.26 26.328 138.007 26.712C138.775 27.0747 139.671 27.256 140.695 27.256C141.612 27.256 142.412 27.1173 143.095 26.84C143.799 26.5627 144.439 26.1467 145.015 25.592L147.671 28.472C146.881 29.368 145.889 30.0613 144.695 30.552C143.5 31.0213 142.124 31.256 140.567 31.256ZM158.892 31L168.684 8.6H176.108L185.9 31H178.092L170.86 12.184H173.804L166.572 31H158.892ZM164.716 27.096L166.636 21.656H176.94L178.86 27.096H164.716ZM187.105 31V8.6H197.889C199.98 8.6 201.783 8.94133 203.297 9.624C204.833 10.3067 206.017 11.288 206.849 12.568C207.681 13.8267 208.097 15.32 208.097 17.048C208.097 18.776 207.681 20.2693 206.849 21.528C206.017 22.7867 204.833 23.768 203.297 24.472C201.783 25.1547 199.98 25.496 197.889 25.496H191.297L194.657 22.264V31H187.105ZM194.657 23.096L191.297 19.672H197.409C198.455 19.672 199.223 19.4373 199.713 18.968C200.225 18.4987 200.481 17.8587 200.481 17.048C200.481 16.2373 200.225 15.5973 199.713 15.128C199.223 14.6587 198.455 14.424 197.409 14.424H191.297L194.657 11V23.096ZM210.574 31V8.6H221.358C223.449 8.6 225.251 8.94133 226.766 9.624C228.302 10.3067 229.486 11.288 230.318 12.568C231.15 13.8267 231.566 15.32 231.566 17.048C231.566 18.776 231.15 20.2693 230.318 21.528C229.486 22.7867 228.302 23.768 226.766 24.472C225.251 25.1547 223.449 25.496 221.358 25.496H214.766L218.126 22.264V31H210.574ZM218.126 23.096L214.766 19.672H220.878C221.923 19.672 222.691 19.4373 223.182 18.968C223.694 18.4987 223.95 17.8587 223.95 17.048C223.95 16.2373 223.694 15.5973 223.182 15.128C222.691 14.6587 221.923 14.424 220.878 14.424H214.766L218.126 11V23.096Z" fill="black"/>
<path d="M69.5541 42.612L68.9381 45.202L68.8261 44.6C69.0501 44.6 69.2321 44.67 69.3721 44.81C69.5121 44.9407 69.5821 45.118 69.5821 45.342C69.5821 45.566 69.5121 45.748 69.3721 45.888C69.2321 46.028 69.0595 46.098 68.8541 46.098C68.6301 46.098 68.4481 46.028 68.3081 45.888C68.1775 45.7387 68.1121 45.5567 68.1121 45.342C68.1121 45.258 68.1168 45.1833 68.1261 45.118C68.1355 45.0527 68.1541 44.9733 68.1821 44.88C68.2101 44.7867 68.2475 44.6747 68.2941 44.544L68.8821 42.612H69.5541ZM71.9341 42.612L71.3181 45.202L71.2061 44.6C71.4301 44.6 71.6121 44.67 71.7521 44.81C71.8921 44.9407 71.9621 45.118 71.9621 45.342C71.9621 45.566 71.8921 45.748 71.7521 45.888C71.6121 46.028 71.4395 46.098 71.2341 46.098C71.0101 46.098 70.8281 46.028 70.6881 45.888C70.5575 45.7387 70.4921 45.5567 70.4921 45.342C70.4921 45.258 70.4968 45.1833 70.5061 45.118C70.5155 45.0527 70.5341 44.9733 70.5621 44.88C70.5901 44.7867 70.6275 44.6747 70.6741 44.544L71.2621 42.612H71.9341ZM74.3118 53V43.2H77.9798C78.8105 43.2 79.5245 43.3353 80.1218 43.606C80.7192 43.8673 81.1765 44.25 81.4938 44.754C81.8205 45.2487 81.9838 45.8507 81.9838 46.56C81.9838 47.2507 81.8205 47.848 81.4938 48.352C81.1765 48.8467 80.7192 49.2293 80.1218 49.5C79.5245 49.7707 78.8105 49.906 77.9798 49.906H74.8858L75.3478 49.416V53H74.3118ZM75.3478 49.5L74.8858 48.996H77.9518C78.9318 48.996 79.6738 48.786 80.1778 48.366C80.6912 47.9367 80.9478 47.3347 80.9478 46.56C80.9478 45.776 80.6912 45.1693 80.1778 44.74C79.6738 44.3107 78.9318 44.096 77.9518 44.096H74.8858L75.3478 43.606V49.5ZM84.1506 53V45.65H85.1446V53H84.1506ZM84.6546 44.026C84.4493 44.026 84.2766 43.956 84.1366 43.816C83.9966 43.676 83.9266 43.508 83.9266 43.312C83.9266 43.116 83.9966 42.9527 84.1366 42.822C84.2766 42.682 84.4493 42.612 84.6546 42.612C84.86 42.612 85.0326 42.6773 85.1726 42.808C85.3126 42.9387 85.3826 43.102 85.3826 43.298C85.3826 43.5033 85.3126 43.676 85.1726 43.816C85.042 43.956 84.8693 44.026 84.6546 44.026ZM86.7904 53L89.8984 48.968L89.8844 49.458L86.9304 45.65H88.0504L90.4724 48.8L90.0524 48.786L92.4744 45.65H93.5664L90.5844 49.5L90.5984 48.968L93.7344 53H92.6004L90.0384 49.64L90.4304 49.696L87.9104 53H86.7904ZM98.2512 53.07C97.4858 53.07 96.8138 52.9113 96.2352 52.594C95.6565 52.2673 95.2038 51.824 94.8772 51.264C94.5505 50.6947 94.3872 50.046 94.3872 49.318C94.3872 48.59 94.5412 47.946 94.8492 47.386C95.1665 46.826 95.5958 46.3873 96.1372 46.07C96.6878 45.7433 97.3038 45.58 97.9852 45.58C98.6758 45.58 99.2872 45.7387 99.8192 46.056C100.36 46.364 100.785 46.8027 101.093 47.372C101.401 47.932 101.555 48.5807 101.555 49.318C101.555 49.3647 101.55 49.416 101.541 49.472C101.541 49.5187 101.541 49.57 101.541 49.626H95.1432V48.884H101.009L100.617 49.178C100.617 48.646 100.5 48.1747 100.267 47.764C100.043 47.344 99.7352 47.0173 99.3432 46.784C98.9512 46.5507 98.4985 46.434 97.9852 46.434C97.4812 46.434 97.0285 46.5507 96.6272 46.784C96.2258 47.0173 95.9132 47.344 95.6892 47.764C95.4652 48.184 95.3532 48.6647 95.3532 49.206V49.36C95.3532 49.92 95.4745 50.4147 95.7172 50.844C95.9692 51.264 96.3145 51.5953 96.7532 51.838C97.2012 52.0713 97.7098 52.188 98.2792 52.188C98.7272 52.188 99.1425 52.1087 99.5252 51.95C99.9172 51.7913 100.253 51.5487 100.533 51.222L101.093 51.866C100.766 52.258 100.356 52.5567 99.8612 52.762C99.3758 52.9673 98.8392 53.07 98.2512 53.07ZM103.578 53V42.612H104.572V53H103.578ZM111.212 53V43.2H114.88C115.711 43.2 116.425 43.3353 117.022 43.606C117.62 43.8673 118.077 44.25 118.394 44.754C118.721 45.2487 118.884 45.8507 118.884 46.56C118.884 47.2507 118.721 47.848 118.394 48.352C118.077 48.8467 117.62 49.2293 117.022 49.5C116.425 49.7707 115.711 49.906 114.88 49.906H111.786L112.248 49.416V53H111.212ZM112.248 49.5L111.786 48.996H114.852C115.832 48.996 116.574 48.786 117.078 48.366C117.592 47.9367 117.848 47.3347 117.848 46.56C117.848 45.776 117.592 45.1693 117.078 44.74C116.574 44.3107 115.832 44.096 114.852 44.096H111.786L112.248 43.606V49.5ZM123.995 53.07C123.23 53.07 122.558 52.9113 121.979 52.594C121.401 52.2673 120.948 51.824 120.621 51.264C120.295 50.6947 120.131 50.046 120.131 49.318C120.131 48.59 120.285 47.946 120.593 47.386C120.911 46.826 121.34 46.3873 121.881 46.07C122.432 45.7433 123.048 45.58 123.729 45.58C124.42 45.58 125.031 45.7387 125.563 46.056C126.105 46.364 126.529 46.8027 126.837 47.372C127.145 47.932 127.299 48.5807 127.299 49.318C127.299 49.3647 127.295 49.416 127.285 49.472C127.285 49.5187 127.285 49.57 127.285 49.626H120.887V48.884H126.753L126.361 49.178C126.361 48.646 126.245 48.1747 126.011 47.764C125.787 47.344 125.479 47.0173 125.087 46.784C124.695 46.5507 124.243 46.434 123.729 46.434C123.225 46.434 122.773 46.5507 122.371 46.784C121.97 47.0173 121.657 47.344 121.433 47.764C121.209 48.184 121.097 48.6647 121.097 49.206V49.36C121.097 49.92 121.219 50.4147 121.461 50.844C121.713 51.264 122.059 51.5953 122.497 51.838C122.945 52.0713 123.454 52.188 124.023 52.188C124.471 52.188 124.887 52.1087 125.269 51.95C125.661 51.7913 125.997 51.5487 126.277 51.222L126.837 51.866C126.511 52.258 126.1 52.5567 125.605 52.762C125.12 52.9673 124.583 53.07 123.995 53.07ZM129.323 53V45.65H130.275V47.652L130.177 47.302C130.382 46.742 130.727 46.3173 131.213 46.028C131.698 45.7293 132.3 45.58 133.019 45.58V46.546C132.981 46.546 132.944 46.546 132.907 46.546C132.869 46.5367 132.832 46.532 132.795 46.532C132.02 46.532 131.413 46.77 130.975 47.246C130.536 47.7127 130.317 48.38 130.317 49.248V53H129.323ZM135.11 53V44.726C135.11 44.0727 135.301 43.5453 135.684 43.144C136.066 42.7427 136.617 42.542 137.336 42.542C137.616 42.542 137.886 42.5793 138.148 42.654C138.409 42.7287 138.628 42.8453 138.806 43.004L138.47 43.746C138.33 43.6247 138.166 43.536 137.98 43.48C137.793 43.4147 137.592 43.382 137.378 43.382C136.958 43.382 136.636 43.4987 136.412 43.732C136.188 43.9653 136.076 44.3107 136.076 44.768V45.888L136.104 46.35V53H135.11ZM133.794 46.476V45.65H138.344V46.476H133.794ZM142.685 53.07C141.919 53.07 141.247 52.9113 140.669 52.594C140.09 52.2673 139.637 51.824 139.311 51.264C138.984 50.6947 138.821 50.046 138.821 49.318C138.821 48.59 138.975 47.946 139.283 47.386C139.6 46.826 140.029 46.3873 140.571 46.07C141.121 45.7433 141.737 45.58 142.419 45.58C143.109 45.58 143.721 45.7387 144.253 46.056C144.794 46.364 145.219 46.8027 145.527 47.372C145.835 47.932 145.989 48.5807 145.989 49.318C145.989 49.3647 145.984 49.416 145.975 49.472C145.975 49.5187 145.975 49.57 145.975 49.626H139.577V48.884H145.443L145.051 49.178C145.051 48.646 144.934 48.1747 144.701 47.764C144.477 47.344 144.169 47.0173 143.777 46.784C143.385 46.5507 142.932 46.434 142.419 46.434C141.915 46.434 141.462 46.5507 141.061 46.784C140.659 47.0173 140.347 47.344 140.123 47.764C139.899 48.184 139.787 48.6647 139.787 49.206V49.36C139.787 49.92 139.908 50.4147 140.151 50.844C140.403 51.264 140.748 51.5953 141.187 51.838C141.635 52.0713 142.143 52.188 142.713 52.188C143.161 52.188 143.576 52.1087 143.959 51.95C144.351 51.7913 144.687 51.5487 144.967 51.222L145.527 51.866C145.2 52.258 144.789 52.5567 144.295 52.762C143.809 52.9673 143.273 53.07 142.685 53.07ZM151.064 53.07C150.336 53.07 149.683 52.9113 149.104 52.594C148.535 52.2673 148.087 51.824 147.76 51.264C147.433 50.6947 147.27 50.046 147.27 49.318C147.27 48.5807 147.433 47.932 147.76 47.372C148.087 46.812 148.535 46.3733 149.104 46.056C149.683 45.7387 150.336 45.58 151.064 45.58C151.689 45.58 152.254 45.7013 152.758 45.944C153.262 46.1867 153.659 46.5507 153.948 47.036L153.206 47.54C152.954 47.1667 152.641 46.8913 152.268 46.714C151.895 46.5367 151.489 46.448 151.05 46.448C150.527 46.448 150.056 46.5693 149.636 46.812C149.216 47.0453 148.885 47.3767 148.642 47.806C148.399 48.2353 148.278 48.7393 148.278 49.318C148.278 49.8967 148.399 50.4007 148.642 50.83C148.885 51.2593 149.216 51.5953 149.636 51.838C150.056 52.0713 150.527 52.188 151.05 52.188C151.489 52.188 151.895 52.0993 152.268 51.922C152.641 51.7447 152.954 51.474 153.206 51.11L153.948 51.614C153.659 52.09 153.262 52.454 152.758 52.706C152.254 52.9487 151.689 53.07 151.064 53.07ZM158.307 53.07C157.616 53.07 157.084 52.8833 156.711 52.51C156.337 52.1367 156.151 51.6093 156.151 50.928V44.026H157.145V50.872C157.145 51.3013 157.252 51.6327 157.467 51.866C157.691 52.0993 158.008 52.216 158.419 52.216C158.857 52.216 159.221 52.09 159.511 51.838L159.861 52.552C159.665 52.7293 159.427 52.86 159.147 52.944C158.876 53.028 158.596 53.07 158.307 53.07ZM154.835 46.476V45.65H159.385V46.476H154.835ZM161.068 46.028L161.684 43.452L161.796 44.04C161.582 44.04 161.4 43.9747 161.25 43.844C161.11 43.704 161.04 43.522 161.04 43.298C161.04 43.074 161.11 42.892 161.25 42.752C161.4 42.612 161.577 42.542 161.782 42.542C161.997 42.542 162.17 42.6167 162.3 42.766C162.44 42.906 162.51 43.0833 162.51 43.298C162.51 43.3727 162.506 43.4473 162.496 43.522C162.487 43.5967 162.468 43.6807 162.44 43.774C162.422 43.858 162.389 43.9653 162.342 44.096L161.74 46.028H161.068ZM163.448 46.028L164.064 43.452L164.176 44.04C163.962 44.04 163.78 43.9747 163.63 43.844C163.49 43.704 163.42 43.522 163.42 43.298C163.42 43.074 163.49 42.892 163.63 42.752C163.78 42.612 163.957 42.542 164.162 42.542C164.377 42.542 164.55 42.6167 164.68 42.766C164.82 42.906 164.89 43.0833 164.89 43.298C164.89 43.3727 164.886 43.4473 164.876 43.522C164.867 43.5967 164.848 43.6807 164.82 43.774C164.802 43.858 164.769 43.9653 164.722 44.096L164.12 46.028H163.448Z" fill="black"/>
</svg>
