<svg width="146" height="24" viewBox="0 0 146 24" fill="none" xmlns="http://www.w3.org/2000/svg">
<path d="M5.04047 19V7.64H0.560469V5H12.7605V7.64H8.28047V19H5.04047ZM18.53 19.16C17.3033 19.16 16.2233 18.92 15.29 18.44C14.37 17.96 13.6567 17.3067 13.15 16.48C12.6433 15.64 12.39 14.6867 12.39 13.62C12.39 12.54 12.6367 11.5867 13.13 10.76C13.6367 9.92 14.3233 9.26667 15.19 8.8C16.0567 8.32 17.0367 8.08 18.13 8.08C19.1833 8.08 20.13 8.30667 20.97 8.76C21.8233 9.2 22.4967 9.84 22.99 10.68C23.4833 11.5067 23.73 12.5 23.73 13.66C23.73 13.78 23.7233 13.92 23.71 14.08C23.6967 14.2267 23.6833 14.3667 23.67 14.5H14.93V12.68H22.03L20.83 13.22C20.83 12.66 20.7167 12.1733 20.49 11.76C20.2633 11.3467 19.95 11.0267 19.55 10.8C19.15 10.56 18.6833 10.44 18.15 10.44C17.6167 10.44 17.1433 10.56 16.73 10.8C16.33 11.0267 16.0167 11.3533 15.79 11.78C15.5633 12.1933 15.45 12.6867 15.45 13.26V13.74C15.45 14.3267 15.5767 14.8467 15.83 15.3C16.0967 15.74 16.4633 16.08 16.93 16.32C17.41 16.5467 17.97 16.66 18.61 16.66C19.1833 16.66 19.6833 16.5733 20.11 16.4C20.55 16.2267 20.95 15.9667 21.31 15.62L22.97 17.42C22.4767 17.98 21.8567 18.4133 21.11 18.72C20.3633 19.0133 19.5033 19.16 18.53 19.16ZM29.4272 19.16C28.5072 19.16 27.6205 19.0533 26.7672 18.84C25.9272 18.6133 25.2605 18.3333 24.7672 18L25.8072 15.76C26.3005 16.0667 26.8805 16.32 27.5472 16.52C28.2272 16.7067 28.8939 16.8 29.5472 16.8C30.2672 16.8 30.7739 16.7133 31.0672 16.54C31.3739 16.3667 31.5272 16.1267 31.5272 15.82C31.5272 15.5667 31.4072 15.38 31.1672 15.26C30.9405 15.1267 30.6339 15.0267 30.2472 14.96C29.8605 14.8933 29.4339 14.8267 28.9672 14.76C28.5139 14.6933 28.0539 14.6067 27.5872 14.5C27.1205 14.38 26.6939 14.2067 26.3072 13.98C25.9205 13.7533 25.6072 13.4467 25.3672 13.06C25.1405 12.6733 25.0272 12.1733 25.0272 11.56C25.0272 10.88 25.2205 10.28 25.6072 9.76C26.0072 9.24 26.5805 8.83333 27.3272 8.54C28.0739 8.23333 28.9672 8.08 30.0072 8.08C30.7405 8.08 31.4872 8.16 32.2472 8.32C33.0072 8.48 33.6405 8.71333 34.1472 9.02L33.1072 11.24C32.5872 10.9333 32.0605 10.7267 31.5272 10.62C31.0072 10.5 30.5005 10.44 30.0072 10.44C29.3139 10.44 28.8072 10.5333 28.4872 10.72C28.1672 10.9067 28.0072 11.1467 28.0072 11.44C28.0072 11.7067 28.1205 11.9067 28.3472 12.04C28.5872 12.1733 28.9005 12.28 29.2872 12.36C29.6739 12.44 30.0939 12.5133 30.5472 12.58C31.0139 12.6333 31.4805 12.72 31.9472 12.84C32.4139 12.96 32.8339 13.1333 33.2072 13.36C33.5939 13.5733 33.9072 13.8733 34.1472 14.26C34.3872 14.6333 34.5072 15.1267 34.5072 15.74C34.5072 16.4067 34.3072 17 33.9072 17.52C33.5072 18.0267 32.9272 18.4267 32.1672 18.72C31.4205 19.0133 30.5072 19.16 29.4272 19.16ZM40.8322 19.16C39.5655 19.16 38.5789 18.84 37.8722 18.2C37.1655 17.5467 36.8122 16.58 36.8122 15.3V5.86H39.9322V15.26C39.9322 15.7133 40.0522 16.0667 40.2922 16.32C40.5322 16.56 40.8589 16.68 41.2722 16.68C41.7655 16.68 42.1855 16.5467 42.5322 16.28L43.3722 18.48C43.0522 18.7067 42.6655 18.88 42.2122 19C41.7722 19.1067 41.3122 19.16 40.8322 19.16ZM35.1522 10.88V8.48H42.6122V10.88H35.1522ZM52.0436 19.24C50.9636 19.24 49.9569 19.0667 49.0236 18.72C48.1036 18.36 47.3036 17.8533 46.6236 17.2C45.9436 16.5467 45.4103 15.78 45.0236 14.9C44.6503 14.02 44.4636 13.0533 44.4636 12C44.4636 10.9467 44.6503 9.98 45.0236 9.1C45.4103 8.22 45.9436 7.45333 46.6236 6.8C47.3169 6.14667 48.1236 5.64667 49.0436 5.3C49.9636 4.94 50.9703 4.76 52.0636 4.76C53.2769 4.76 54.3703 4.97333 55.3436 5.4C56.3303 5.81333 57.1569 6.42667 57.8236 7.24L55.7436 9.16C55.2636 8.61333 54.7303 8.20667 54.1436 7.94C53.5569 7.66 52.9169 7.52 52.2236 7.52C51.5703 7.52 50.9703 7.62667 50.4236 7.84C49.8769 8.05333 49.4036 8.36 49.0036 8.76C48.6036 9.16 48.2903 9.63333 48.0636 10.18C47.8503 10.7267 47.7436 11.3333 47.7436 12C47.7436 12.6667 47.8503 13.2733 48.0636 13.82C48.2903 14.3667 48.6036 14.84 49.0036 15.24C49.4036 15.64 49.8769 15.9467 50.4236 16.16C50.9703 16.3733 51.5703 16.48 52.2236 16.48C52.9169 16.48 53.5569 16.3467 54.1436 16.08C54.7303 15.8 55.2636 15.38 55.7436 14.82L57.8236 16.74C57.1569 17.5533 56.3303 18.1733 55.3436 18.6C54.3703 19.0267 53.2703 19.24 52.0436 19.24ZM66.333 19V16.9L66.133 16.44V12.68C66.133 12.0133 65.9263 11.4933 65.513 11.12C65.113 10.7467 64.493 10.56 63.653 10.56C63.0796 10.56 62.513 10.6533 61.953 10.84C61.4063 11.0133 60.9396 11.2533 60.553 11.56L59.433 9.38C60.0196 8.96667 60.7263 8.64667 61.553 8.42C62.3796 8.19333 63.2196 8.08 64.073 8.08C65.713 8.08 66.9863 8.46667 67.893 9.24C68.7996 10.0133 69.253 11.22 69.253 12.86V19H66.333ZM63.053 19.16C62.213 19.16 61.493 19.02 60.893 18.74C60.293 18.4467 59.833 18.0533 59.513 17.56C59.193 17.0667 59.033 16.5133 59.033 15.9C59.033 15.26 59.1863 14.7 59.493 14.22C59.813 13.74 60.313 13.3667 60.993 13.1C61.673 12.82 62.5596 12.68 63.653 12.68H66.513V14.5H63.993C63.2596 14.5 62.753 14.62 62.473 14.86C62.2063 15.1 62.073 15.4 62.073 15.76C62.073 16.16 62.2263 16.48 62.533 16.72C62.853 16.9467 63.2863 17.06 63.833 17.06C64.353 17.06 64.8196 16.94 65.233 16.7C65.6463 16.4467 65.9463 16.08 66.133 15.6L66.613 17.04C66.3863 17.7333 65.973 18.26 65.373 18.62C64.773 18.98 63.9996 19.16 63.053 19.16ZM75.6967 19.16C74.7767 19.16 73.8901 19.0533 73.0367 18.84C72.1967 18.6133 71.5301 18.3333 71.0367 18L72.0767 15.76C72.5701 16.0667 73.1501 16.32 73.8167 16.52C74.4967 16.7067 75.1634 16.8 75.8167 16.8C76.5367 16.8 77.0434 16.7133 77.3367 16.54C77.6434 16.3667 77.7967 16.1267 77.7967 15.82C77.7967 15.5667 77.6767 15.38 77.4367 15.26C77.2101 15.1267 76.9034 15.0267 76.5167 14.96C76.1301 14.8933 75.7034 14.8267 75.2367 14.76C74.7834 14.6933 74.3234 14.6067 73.8567 14.5C73.3901 14.38 72.9634 14.2067 72.5767 13.98C72.1901 13.7533 71.8767 13.4467 71.6367 13.06C71.4101 12.6733 71.2967 12.1733 71.2967 11.56C71.2967 10.88 71.4901 10.28 71.8767 9.76C72.2767 9.24 72.8501 8.83333 73.5967 8.54C74.3434 8.23333 75.2367 8.08 76.2767 8.08C77.0101 8.08 77.7567 8.16 78.5167 8.32C79.2767 8.48 79.9101 8.71333 80.4167 9.02L79.3767 11.24C78.8567 10.9333 78.3301 10.7267 77.7967 10.62C77.2767 10.5 76.7701 10.44 76.2767 10.44C75.5834 10.44 75.0767 10.5333 74.7567 10.72C74.4367 10.9067 74.2767 11.1467 74.2767 11.44C74.2767 11.7067 74.3901 11.9067 74.6167 12.04C74.8567 12.1733 75.1701 12.28 75.5567 12.36C75.9434 12.44 76.3634 12.5133 76.8167 12.58C77.2834 12.6333 77.7501 12.72 78.2167 12.84C78.6834 12.96 79.1034 13.1333 79.4767 13.36C79.8634 13.5733 80.1767 13.8733 80.4167 14.26C80.6567 14.6333 80.7767 15.1267 80.7767 15.74C80.7767 16.4067 80.5767 17 80.1767 17.52C79.7767 18.0267 79.1967 18.4267 78.4367 18.72C77.6901 19.0133 76.7767 19.16 75.6967 19.16ZM88.0417 19.16C86.8151 19.16 85.7351 18.92 84.8017 18.44C83.8817 17.96 83.1684 17.3067 82.6617 16.48C82.1551 15.64 81.9017 14.6867 81.9017 13.62C81.9017 12.54 82.1484 11.5867 82.6417 10.76C83.1484 9.92 83.8351 9.26667 84.7017 8.8C85.5684 8.32 86.5484 8.08 87.6417 8.08C88.6951 8.08 89.6417 8.30667 90.4817 8.76C91.3351 9.2 92.0084 9.84 92.5017 10.68C92.9951 11.5067 93.2417 12.5 93.2417 13.66C93.2417 13.78 93.2351 13.92 93.2217 14.08C93.2084 14.2267 93.1951 14.3667 93.1817 14.5H84.4417V12.68H91.5417L90.3417 13.22C90.3417 12.66 90.2284 12.1733 90.0017 11.76C89.7751 11.3467 89.4617 11.0267 89.0617 10.8C88.6617 10.56 88.1951 10.44 87.6617 10.44C87.1284 10.44 86.6551 10.56 86.2417 10.8C85.8417 11.0267 85.5284 11.3533 85.3017 11.78C85.0751 12.1933 84.9617 12.6867 84.9617 13.26V13.74C84.9617 14.3267 85.0884 14.8467 85.3417 15.3C85.6084 15.74 85.9751 16.08 86.4417 16.32C86.9217 16.5467 87.4817 16.66 88.1217 16.66C88.6951 16.66 89.1951 16.5733 89.6217 16.4C90.0617 16.2267 90.4617 15.9667 90.8217 15.62L92.4817 17.42C91.9884 17.98 91.3684 18.4133 90.6217 18.72C89.8751 19.0133 89.0151 19.16 88.0417 19.16ZM99.495 19L105.615 5H110.255L116.375 19H111.495L106.975 7.24H108.815L104.295 19H99.495ZM103.135 16.56L104.335 13.16H110.775L111.975 16.56H103.135ZM117.128 19V5H123.868C125.175 5 126.302 5.21333 127.248 5.64C128.208 6.06667 128.948 6.68 129.468 7.48C129.988 8.26667 130.248 9.2 130.248 10.28C130.248 11.36 129.988 12.2933 129.468 13.08C128.948 13.8667 128.208 14.48 127.248 14.92C126.302 15.3467 125.175 15.56 123.868 15.56H119.748L121.848 13.54V19H117.128ZM121.848 14.06L119.748 11.92H123.568C124.222 11.92 124.702 11.7733 125.008 11.48C125.328 11.1867 125.488 10.7867 125.488 10.28C125.488 9.77333 125.328 9.37333 125.008 9.08C124.702 8.78667 124.222 8.64 123.568 8.64H119.748L121.848 6.5V14.06ZM131.796 19V5H138.536C139.843 5 140.97 5.21333 141.916 5.64C142.876 6.06667 143.616 6.68 144.136 7.48C144.656 8.26667 144.916 9.2 144.916 10.28C144.916 11.36 144.656 12.2933 144.136 13.08C143.616 13.8667 142.876 14.48 141.916 14.92C140.97 15.3467 139.843 15.56 138.536 15.56H134.416L136.516 13.54V19H131.796ZM136.516 14.06L134.416 11.92H138.236C138.89 11.92 139.37 11.7733 139.676 11.48C139.996 11.1867 140.156 10.7867 140.156 10.28C140.156 9.77333 139.996 9.37333 139.676 9.08C139.37 8.78667 138.89 8.64 138.236 8.64H134.416L136.516 6.5V14.06Z" fill="black"/>
</svg>
